<?xml version="1.0" encoding="UTF-8" standalone="no"?>
<!-- Generator: Adobe Illustrator 27.9.0, SVG Export Plug-In . SVG Version: 6.00 Build 0)  -->

<svg
   version="1.1"
   id="Ebene_1"
   x="0px"
   y="0px"
   viewBox="0 0 547.63885 553.28723"
   xml:space="preserve"
   width="547.63885"
   height="553.28723"
   xmlns="http://www.w3.org/2000/svg"
   xmlns:svg="http://www.w3.org/2000/svg"><defs
   id="defs11" />
<style
   type="text/css"
   id="style1">
	.st0{fill:#536168;}
	.st1{fill:#4DD6B0;}
	.st2{fill:#15C390;}
	.st3{fill:#334249;}
	.st4{fill:#F8FEFE;}
</style>
<g
   id="g11"
   transform="translate(-233.53838,-273.76274)">
	<path
   class="st0"
   d="m 487.1,826 c -44.6,-3.2 -85.9,-16.4 -123.9,-39.9 -1.7,-1 -3.4,-2 -5.1,-2.9 C 290.9,736 249,672.2 236.9,591 c -9.7,-65.2 1.4,-127.3 35.8,-184.5 2.1,0.2 4.1,0.3 6.2,0.5 5.5,5.7 11.1,11.5 16.7,17.1 29.4,29.3 58.8,58.5 88.2,87.8 0.4,22.1 0.9,44.2 1,66.4 0.2,42.9 0.2,85.8 0.2,128.7 1.1,1.6 2,3.4 3.3,4.8 35.7,36.1 71.4,72.2 107.2,108.3 1.2,1.2 7.3,5.2 8.7,6.8 -6.3,-0.1 -13.1,-0.6 -14.3,-0.7 -0.6,0 -1.3,-0.1 -1.9,-0.1 -0.3,-0.1 -0.6,-0.1 -0.9,-0.1 z"
   id="path1" />
	<path
   class="st1"
   d="m 753.8,426.1 c 5.2,12.7 17,47.3 20.3,56.5 0.6,1.7 0.5,3.6 0.8,5.4 -2.1,-0.7 -4.2,-1.9 -6.3,-1.9 -25.5,-0.1 -51,-0.1 -76.4,-0.1 -8.3,0 -16.5,0 -24.8,0 -0.5,-3.3 -1.2,-5.7 -1.3,-8.2 C 662.2,421 611.3,373 554.4,373 c -81.8,-0.1 -163.5,0 -245.3,-0.1 -3.7,0 -15.5,4.7 -11.1,-0.9 4.4,-5.6 46.7,-45.4 74.1,-61.1 119.2,-68.2 262.7,-40.3 349.6,65.9 12.3,15.1 29.5,44.5 32.1,49.3 z"
   id="path2" />
	<path
   class="st2"
   d="m 298,372 c 3.7,0.3 7.4,0.9 11.1,0.9 81.8,0 163.5,0 245.3,0.1 56.9,0.1 107.8,48 111.7,104.9 0.2,2.5 0.8,4.9 1.3,8.2 8.3,0 16.5,0 24.8,0 25.5,0 51,-0.1 76.4,0.1 2.1,0 4.2,1.2 6.3,1.9 1.7,10.7 3.4,21.3 5.1,32 0,0.4 0.1,0.8 0.1,1.2 -0.1,1.3 -0.2,2.5 -0.3,3.8 -35.3,-0.2 -70.6,-0.3 -105.9,-0.5 -3.5,-0.1 -7,-0.3 -10.5,-0.4 -9.6,-9.4 -19.1,-18.8 -28.8,-28.2 -9.6,-9.3 -19.2,-18.5 -28.8,-27.8 -12.4,-34.4 -36.4,-56.5 -72.8,-59.7 -31.6,-2.8 -63.5,-0.9 -95.3,-1 -0.6,0 -1.2,0.4 -2.1,0.8 0,99.6 0,199.2 0,298.8 -16.9,0 -33.7,0.1 -50.6,0.1 -0.1,-42.9 0,-85.8 -0.2,-128.7 -0.1,-22.1 -0.7,-44.2 -1,-66.4 0,-34.8 0,-69.5 0,-104.8 -35.2,0 -69.9,0 -104.7,0 0,0 -6.6,0 -6.7,0 8.6,-13.9 15.7,-23.8 25.6,-35.3 z"
   id="path3" />
	<path
   class="st3"
   d="m 499.2,824.2 c -1.4,-1.6 -2.5,-3 -3.7,-4.2 -35.7,-36.1 -71.5,-72.2 -107.2,-108.3 -1.3,-1.4 -2.2,-3.2 -3.3,-4.8 16.9,0 33.7,-0.1 50.6,-0.1 30.2,0 60.3,0.1 90.4,0.1 44.9,0.1 83.2,-37.9 83.9,-82.9 0.4,-28.1 -10.8,-50.6 -32.8,-68.3 29.6,-23.1 36.6,-53.1 28.7,-87.8 9.6,9.3 19.2,18.5 28.8,27.8 9.6,9.4 19.2,18.8 28.8,28.2 0.1,0.3 0.3,0.7 0.4,1 34.7,35.7 69.4,71.3 104.1,107 -5,13.8 -9,28 -15.2,41.2 C 707,770.6 608.8,833 501.5,826.6"
   id="path4" />
	<path
   class="st4"
   d="m 768,632 c -34.7,-35.7 -69.4,-71.3 -104.1,-107 3.4,-0.2 6.7,-0.4 10.1,-0.6 35.3,0.2 70.6,0.3 105.9,0.5 0.3,16.7 2.3,33.6 0.6,50.1 -1.8,18.5 -6.9,36.7 -10.6,55 -0.2,0.8 -1.3,1.4 -1.9,2 z"
   id="path5" />
	<path
   class="st1"
   d="m 780.2,521.2 c 0,-0.4 -0.1,-0.8 -0.1,-1.2 0,0.4 0,0.8 0.1,1.2 z"
   id="path6" />
	<path
   class="st3"
   d="m 487,825.9 c 0.3,0 0.6,0.1 1,0.1 -0.3,0 -0.6,-0.1 -1,-0.1 z"
   id="path7" />
	<path
   class="st3"
   d="m 279.1,407.1 c 34.8,0 69.5,0 104.7,0 0,35.3 0,70 0,104.8 -29.4,-29.3 -58.8,-58.5 -88.2,-87.8 -5.6,-5.6 -11,-11.3 -16.5,-17 z"
   id="path8" />
	<path
   class="st4"
   d="m 605.9,468 c 7.9,34.7 0.9,64.7 -28.7,87.8 22,17.7 33.2,40.2 32.8,68.3 -0.7,44.9 -39,82.9 -83.9,82.9 -30.1,0 -60.3,-0.1 -90.4,-0.1 0,-99.6 0,-199.1 0,-298.8 0.9,-0.4 1.5,-0.8 2.1,-0.8 31.8,0.1 63.8,-1.8 95.3,1 36.4,3.2 60.4,25.3 72.8,59.7 z m -116.3,62.1 c 10.2,0 19.9,0 29.5,0 17.3,0 31.1,-13.2 32.9,-31.4 1.6,-16.2 -10.4,-34.3 -26.1,-36.5 -11.8,-1.6 -24.1,-0.3 -36.3,-0.3 0,22.3 0,44.9 0,68.2 z m -0.1,122.2 c 9.5,0 18.6,-0.2 27.7,0 14.8,0.3 25.1,-6.4 31.3,-19.6 6.3,-13.6 4.6,-26.2 -4.8,-37.8 -15,-18.5 -35.8,-9.9 -54.2,-12.4 0,23.8 0,46.5 0,69.8 z"
   id="path9" />
	<path
   class="st3"
   d="m 489.6,530.1 c 0,-23.3 0,-45.9 0,-68.2 12.2,0 24.5,-1.3 36.3,0.3 15.7,2.1 27.8,20.3 26.1,36.5 -1.8,18.2 -15.6,31.4 -32.9,31.4 -9.7,0 -19.3,0 -29.5,0 z"
   id="path10" />
	<path
   class="st3"
   d="m 489.5,652.3 c 0,-23.3 0,-46 0,-69.7 18.4,2.5 39.2,-6.1 54.2,12.4 9.4,11.6 11.1,24.2 4.8,37.8 -6.2,13.3 -16.5,19.9 -31.3,19.6 -9,-0.3 -18.1,-0.1 -27.7,-0.1 z"
   id="path11" />
</g>
</svg>
